<?xml version="1.0" standalone="no"?>
<!DOCTYPE svg PUBLIC "-//W3C//DTD SVG 20010904//EN"
 "http://www.w3.org/TR/2001/REC-SVG-20010904/DTD/svg10.dtd">
<svg version="1.0" xmlns="http://www.w3.org/2000/svg"
  width="100pt" height="100pt" viewBox="100 0 512.000000 512.000000"
 preserveAspectRatio="xMidYMid meet">

<g transform="translate(0.000000,512.000000) scale(0.100000,-0.100000)"
fill="#000000" stroke="none">
<path d="M2060 4260 c-533 -66 -972 -420 -1138 -921 -89 -268 -89 -580 -2
-842 71 -211 166 -363 330 -528 123 -124 212 -190 356 -262 277 -140 600 -178
909 -105 192 45 344 118 534 259 l32 23 539 -539 540 -540 77 78 78 77 -539
539 c-367 367 -536 543 -531 551 5 7 33 47 63 89 58 82 128 213 166 313 82
219 102 507 51 748 -111 526 -552 953 -1082 1045 -112 20 -288 26 -383 15z
m342 -225 c230 -40 427 -143 599 -314 215 -214 324 -462 336 -761 13 -329 -99
-614 -331 -846 -233 -234 -523 -346 -855 -331 -498 22 -921 367 -1048 855 -35
135 -42 321 -18 463 48 286 208 550 440 726 138 105 334 185 525 216 63 10
275 6 352 -8z"/>
<path d="M2400 3265 l-195 -195 -190 190 c-105 104 -195 190 -200 190 -6 0
-43 -33 -83 -73 l-72 -72 195 -195 195 -195 -195 -195 -195 -195 75 -75 75
-75 195 195 195 195 193 -193 c106 -105 197 -192 202 -192 13 0 145 132 145
145 0 5 -87 96 -192 202 l-193 193 195 195 195 195 -75 75 -75 75 -195 -195z"/>
</g>
</svg>